<svg version="1.1" id="Layer_1" xmlns="http://www.w3.org/2000/svg" xmlns:xlink="http://www.w3.org/1999/xlink" x="0px" y="0px"
	 width="100%" viewBox="0 0 200 200" enable-background="new 0 0 200 200" xml:space="preserve">
<path fill="#FFFFFF" opacity="1.000000" stroke="none" 
	d="
M115.000000,201.000000 
	C76.690323,201.000000 38.880650,201.000000 1.035486,201.000000 
	C1.035486,134.398697 1.035486,67.797363 1.035486,1.098018 
	C67.559509,1.098018 134.119202,1.098018 200.839447,1.098018 
	C200.839447,67.666359 200.839447,134.333145 200.839447,201.000000 
	C172.464310,201.000000 143.982162,201.000000 115.000000,201.000000 
M38.156506,163.499756 
	C38.156509,168.995834 38.130791,174.492081 38.162552,179.987976 
	C38.210167,188.226776 41.015739,190.998138 49.351139,191.000900 
	C83.660980,191.012222 117.970818,191.009781 152.280655,191.002792 
	C161.193054,191.000977 163.829407,188.355652 163.837540,179.342392 
	C163.856323,158.523331 163.843536,137.704239 163.843491,116.885170 
	C163.843460,108.557541 163.928497,100.228767 163.816940,91.902634 
	C163.722672,84.866066 160.701813,82.031548 153.631958,81.995972 
	C151.548233,81.985489 149.464401,81.994354 147.175125,81.994354 
	C147.175125,80.325005 147.190552,79.341461 147.172714,78.358536 
	C146.997574,68.709290 147.887573,58.894733 146.427444,49.443466 
	C142.749344,25.635277 120.598564,8.989490 96.920708,11.168576 
	C72.933830,13.376102 54.865501,33.266491 54.826988,57.518677 
	C54.814129,65.615974 54.824955,73.713310 54.824955,81.994286 
	C53.201366,81.994286 52.210720,81.988129 51.220169,81.995232 
	C40.112957,82.074890 38.157143,84.028328 38.156746,95.046043 
	C38.155941,117.530647 38.156506,140.015244 38.156506,163.499756 
z"/>
<path fill="#030303" opacity="1.000000" stroke="none" 
	d="
M38.156506,162.999802 
	C38.156506,140.015244 38.155941,117.530647 38.156746,95.046043 
	C38.157143,84.028328 40.112957,82.074890 51.220169,81.995232 
	C52.210720,81.988129 53.201366,81.994286 54.824955,81.994286 
	C54.824955,73.713310 54.814129,65.615974 54.826988,57.518677 
	C54.865501,33.266491 72.933830,13.376102 96.920708,11.168576 
	C120.598564,8.989490 142.749344,25.635277 146.427444,49.443466 
	C147.887573,58.894733 146.997574,68.709290 147.172714,78.358536 
	C147.190552,79.341461 147.175125,80.325005 147.175125,81.994354 
	C149.464401,81.994354 151.548233,81.985489 153.631958,81.995972 
	C160.701813,82.031548 163.722672,84.866066 163.816940,91.902634 
	C163.928497,100.228767 163.843460,108.557541 163.843491,116.885170 
	C163.843536,137.704239 163.856323,158.523331 163.837540,179.342392 
	C163.829407,188.355652 161.193054,191.000977 152.280655,191.002792 
	C117.970818,191.009781 83.660980,191.012222 49.351139,191.000900 
	C41.015739,190.998138 38.210167,188.226776 38.162552,179.987976 
	C38.130791,174.492081 38.156509,168.995834 38.156506,162.999802 
M130.497772,98.164284 
	C105.404076,98.164284 80.310379,98.164284 55.202309,98.164284 
	C55.202309,123.871399 55.202309,149.052750 55.202309,174.262451 
	C85.991661,174.262451 116.410820,174.262451 146.794266,174.262451 
	C146.794266,148.808395 146.794266,123.605385 146.794266,98.164284 
	C141.447601,98.164284 136.471817,98.164284 130.497772,98.164284 
M106.036476,27.938179 
	C88.641365,25.712830 74.080154,35.586960 71.688866,52.666397 
	C70.353729,62.202442 71.448868,72.078751 71.448868,81.739014 
	C91.307686,81.739014 111.010941,81.739014 130.994659,81.739014 
	C130.994659,74.035233 131.007248,66.583672 130.992065,59.132153 
	C130.959473,43.139397 122.377068,32.060997 106.036476,27.938179 
z"/>
<path fill="#FAFAFA" opacity="1.000000" stroke="none" 
	d="
M130.996902,98.164284 
	C136.471817,98.164284 141.447601,98.164284 146.794266,98.164284 
	C146.794266,123.605385 146.794266,148.808395 146.794266,174.262451 
	C116.410820,174.262451 85.991661,174.262451 55.202309,174.262451 
	C55.202309,149.052750 55.202309,123.871399 55.202309,98.164284 
	C80.310379,98.164284 105.404076,98.164284 130.996902,98.164284 
M136.618179,120.016266 
	C131.722366,128.379333 126.826553,136.742386 121.707481,145.486832 
	C116.135017,135.952698 111.008682,127.028328 105.684418,118.223656 
	C104.797348,116.756721 103.048790,115.810753 101.698311,114.624046 
	C101.273727,114.934097 100.849144,115.244148 100.424561,115.554199 
	C100.424561,128.337784 100.363319,141.122253 100.549370,153.903137 
	C100.563164,154.850433 102.354271,155.771866 103.319130,156.705322 
	C103.835854,156.400818 104.352570,156.096313 104.869293,155.791809 
	C104.869293,145.841187 104.869293,135.890564 104.869293,125.939949 
	C109.970963,132.978226 114.142807,140.117386 118.332283,147.246185 
	C121.447342,152.546753 121.883957,152.556320 124.912476,147.379395 
	C129.217560,140.020294 133.502533,132.649429 137.796097,125.283585 
	C138.104126,125.383957 138.412155,125.484322 138.720184,125.584686 
	C138.720184,135.623734 138.720184,145.662796 138.720184,155.948822 
	C140.324753,155.948822 141.520737,155.948822 142.851715,155.948822 
	C142.851715,142.262695 142.851715,128.824860 142.851715,115.471062 
	C138.884979,114.002129 138.355972,117.295761 136.618179,120.016266 
M58.967262,129.505966 
	C58.967262,138.298096 58.967262,147.090240 58.967262,156.283707 
	C60.720314,156.092926 62.058929,155.947250 63.780231,155.759933 
	C63.780231,151.425293 63.780231,147.501999 63.780231,143.211121 
	C66.503761,143.211121 68.805847,143.237640 71.107048,143.203949 
	C73.600258,143.167435 76.117836,143.276566 78.580681,142.969025 
	C86.168358,142.021515 90.876884,136.969284 91.031853,129.847534 
	C91.194550,122.370750 87.151024,117.014030 79.562103,116.006584 
	C72.898041,115.121925 66.106834,115.194969 58.967262,114.824005 
	C58.967262,119.923248 58.967262,124.216560 58.967262,129.505966 
z"/>
<path fill="#FEFEFE" opacity="1.000000" stroke="none" 
	d="
M106.477905,27.985971 
	C122.377068,32.060997 130.959473,43.139397 130.992065,59.132153 
	C131.007248,66.583672 130.994659,74.035233 130.994659,81.739014 
	C111.010941,81.739014 91.307686,81.739014 71.448868,81.739014 
	C71.448868,72.078751 70.353729,62.202442 71.688866,52.666397 
	C74.080154,35.586960 88.641365,25.712830 106.477905,27.985971 
z"/>
<path fill="#171717" opacity="1.000000" stroke="none" 
	d="
M136.792023,119.683525 
	C138.355972,117.295761 138.884979,114.002129 142.851715,115.471062 
	C142.851715,128.824860 142.851715,142.262695 142.851715,155.948822 
	C141.520737,155.948822 140.324753,155.948822 138.720184,155.948822 
	C138.720184,145.662796 138.720184,135.623734 138.720184,125.584686 
	C138.412155,125.484322 138.104126,125.383957 137.796097,125.283585 
	C133.502533,132.649429 129.217560,140.020294 124.912476,147.379395 
	C121.883957,152.556320 121.447342,152.546753 118.332283,147.246185 
	C114.142807,140.117386 109.970963,132.978226 104.869293,125.939949 
	C104.869293,135.890564 104.869293,145.841187 104.869293,155.791809 
	C104.352570,156.096313 103.835854,156.400818 103.319130,156.705322 
	C102.354271,155.771866 100.563164,154.850433 100.549370,153.903137 
	C100.363319,141.122253 100.424561,128.337784 100.424561,115.554199 
	C100.849144,115.244148 101.273727,114.934097 101.698311,114.624046 
	C103.048790,115.810753 104.797348,116.756721 105.684418,118.223656 
	C111.008682,127.028328 116.135017,135.952698 121.707481,145.486832 
	C126.826553,136.742386 131.722366,128.379333 136.792023,119.683525 
z"/>
<path fill="#151515" opacity="1.000000" stroke="none" 
	d="
M58.967262,129.007919 
	C58.967262,124.216560 58.967262,119.923248 58.967262,114.824005 
	C66.106834,115.194969 72.898041,115.121925 79.562103,116.006584 
	C87.151024,117.014030 91.194550,122.370750 91.031853,129.847534 
	C90.876884,136.969284 86.168358,142.021515 78.580681,142.969025 
	C76.117836,143.276566 73.600258,143.167435 71.107048,143.203949 
	C68.805847,143.237640 66.503761,143.211121 63.780231,143.211121 
	C63.780231,147.501999 63.780231,151.425293 63.780231,155.759933 
	C62.058929,155.947250 60.720314,156.092926 58.967262,156.283707 
	C58.967262,147.090240 58.967262,138.298096 58.967262,129.007919 
M63.729179,119.602287 
	C63.729179,126.142143 63.729179,132.681992 63.729179,139.246841 
	C68.494087,139.246841 72.643173,139.529907 76.738762,139.182419 
	C83.361008,138.620560 86.848274,134.921173 86.773979,129.153458 
	C86.703476,123.679573 83.246552,119.979164 76.964600,119.331581 
	C72.864960,118.908966 68.697456,119.144524 63.729179,119.602287 
z"/>
<path fill="#FDFDFD" opacity="1.000000" stroke="none" 
	d="
M64.144768,119.343765 
	C68.697456,119.144524 72.864960,118.908966 76.964600,119.331581 
	C83.246552,119.979164 86.703476,123.679573 86.773979,129.153458 
	C86.848274,134.921173 83.361008,138.620560 76.738762,139.182419 
	C72.643173,139.529907 68.494087,139.246841 63.729179,139.246841 
	C63.729179,132.681992 63.729179,126.142143 64.144768,119.343765 
z"/>
</svg>